<?xml version="1.0" encoding="UTF-8" standalone="no"?><!DOCTYPE svg PUBLIC "-//W3C//DTD SVG 1.1//EN" "http://www.w3.org/Graphics/SVG/1.1/DTD/svg11.dtd"><svg width="100%" height="100%" viewBox="0 0 125 125" version="1.1" xmlns="http://www.w3.org/2000/svg" xmlns:xlink="http://www.w3.org/1999/xlink" xml:space="preserve" xmlns:serif="http://www.serif.com/" style="fill-rule:evenodd;clip-rule:evenodd;stroke-linejoin:round;stroke-miterlimit:2;"><rect id="ig_logo" x="-0" y="0" width="125" height="125" style="fill:none;"/><clipPath id="_clip1"><rect x="-0" y="0" width="125" height="125"/></clipPath><g clip-path="url(#_clip1)"><path id="surface1" d="M36.751,-0c-20.24,-0 -36.751,16.511 -36.751,36.751l-0,51.498c-0,20.24 16.511,36.751 36.751,36.751c0,0 51.498,0 51.498,0c20.24,0 36.751,-16.511 36.751,-36.751c-0,-0 -0,-51.498 -0,-51.498c-0,-20.24 -16.511,-36.751 -36.751,-36.751l-51.498,-0Zm0,11.675l51.498,0c13.898,0 25.076,11.161 25.076,25.076l-0,51.498c-0,13.898 -11.161,25.076 -25.076,25.076c-0,-0 -51.498,-0 -51.498,-0c-13.898,-0 -25.076,-11.161 -25.076,-25.076c0,-0 0,-51.498 0,-51.498c0,-13.898 11.161,-25.076 25.076,-25.076Zm25.749,16.656c-18.82,0 -34.169,15.349 -34.169,34.169c0,18.82 15.349,34.169 34.169,34.169c18.82,-0 34.169,-15.349 34.169,-34.169c-0,-18.82 -15.349,-34.169 -34.169,-34.169Zm-0,11.675c12.477,0 22.494,10.017 22.494,22.494c-0,12.477 -10.017,22.494 -22.494,22.494c-12.477,-0 -22.494,-10.017 -22.494,-22.494c0,-12.477 10.017,-22.494 22.494,-22.494Zm35.414,-21.119c-4.526,0 -8.199,3.673 -8.199,8.199c0,4.526 3.673,8.199 8.199,8.199c4.526,-0 8.199,-3.673 8.199,-8.199c-0,-4.526 -3.673,-8.199 -8.199,-8.199Z" style="fill:#fff;fill-rule:nonzero;"/></g></svg>