<?xml version="1.0" encoding="UTF-8" standalone="no"?><!DOCTYPE svg PUBLIC "-//W3C//DTD SVG 1.1//EN" "http://www.w3.org/Graphics/SVG/1.1/DTD/svg11.dtd"><svg width="100%" height="100%" viewBox="0 0 125 125" version="1.1" xmlns="http://www.w3.org/2000/svg" xmlns:xlink="http://www.w3.org/1999/xlink" xml:space="preserve" xmlns:serif="http://www.serif.com/" style="fill-rule:evenodd;clip-rule:evenodd;stroke-linejoin:round;stroke-miterlimit:2;"><rect id="fb_logo" x="-0" y="0" width="125" height="125" style="fill:none;"/><clipPath id="_clip1"><rect x="-0" y="0" width="125" height="125"/></clipPath><g clip-path="url(#_clip1)"><path d="M51.076,125l-0,-47.737l-9.114,0c-1.956,0 -3.543,-1.588 -3.543,-3.543l-0,-12.485c-0,-1.955 1.587,-3.543 3.543,-3.543c0,-0 9.114,-0 9.114,-0l-0,-9.834c-0,-9.117 2.679,-14.805 6.111,-18.369c5.21,-5.41 12.243,-5.963 14.886,-5.963l12.495,-0c1.509,0 2.734,1.225 2.734,2.734l0,12.067c0,1.509 -1.225,2.735 -2.734,2.735l-7.182,-0c-2.4,-0 -4.127,0.322 -5.23,1.384c-1.101,1.061 -1.509,2.802 -1.509,5.412c-0,0 -0,9.834 -0,9.834l13.553,-0c1.956,0 3.543,1.588 3.543,3.543l0,0.053c0,-0 -1.182,12.49 -1.181,12.483c-0.028,1.932 -1.605,3.492 -3.543,3.492c-0,0 -12.372,0 -12.372,0l-0,47.737l17.602,0c20.24,0 36.751,-16.511 36.751,-36.751c-0,-0 -0,-51.498 -0,-51.498c-0,-20.239 -16.511,-36.751 -36.751,-36.751l-51.498,-0c-20.24,0 -36.751,16.512 -36.751,36.751l-0,51.498c-0,20.24 16.511,36.751 36.751,36.751l14.325,0Z" style="fill:#fff;"/></g></svg>