<?xml version="1.0" encoding="UTF-8" standalone="no"?>
<!DOCTYPE svg PUBLIC "-//W3C//DTD SVG 1.1//EN" "http://www.w3.org/Graphics/SVG/1.1/DTD/svg11.dtd">
<svg width="100%" height="100%" viewBox="0 0 1040 400" version="1.1" xmlns="http://www.w3.org/2000/svg" xmlns:xlink="http://www.w3.org/1999/xlink" xml:space="preserve" xmlns:serif="http://www.serif.com/" style="fill-rule:evenodd;clip-rule:evenodd;stroke-linejoin:round;stroke-miterlimit:2;">
    <rect id="logo_FMK" x="0" y="0" width="1040" height="400" style="fill:none;"/>
    <g>
        <path d="M127.587,246.914L127.587,252.834L110.821,252.834L110.821,274.662L104.563,274.662L104.563,227.252L130.22,227.252L130.22,233.164L110.821,233.164L110.821,246.914L127.587,246.914Z" style="fill:white;fill-rule:nonzero;"/>
        <path d="M149.962,264.078C149.962,261.648 147.006,260.001 143.846,260.001C140.755,260.001 138.122,261.317 138.122,265.003C138.122,268.35 140.95,269.599 143.846,269.599C147.269,269.599 149.962,267.365 149.962,265.131L149.962,264.078ZM149.962,271.908C148.976,273.021 146.87,274.999 142.462,274.999C135.693,274.999 131.879,271.441 131.879,265.003C131.879,258.353 136.482,254.803 142.665,254.803C145.952,254.803 148.713,256.059 149.962,257.368L149.962,253.554C149.962,249.809 147.464,248.425 144.177,248.425C140.492,248.425 137.205,249.613 135.429,250.335L134.767,244.942C136.678,244.212 139.77,243.031 144.832,243.031C151.872,243.031 155.881,246.717 155.881,253.554L155.881,274.668L149.962,274.668L149.962,271.908Z" style="fill:white;fill-rule:nonzero;"/>
        <path d="M171.025,274.666L165.105,274.666L165.105,227.248L171.025,227.248L171.025,255.794L181.285,243.36L188.852,243.36L177.336,256.584L190.687,274.666L183.128,274.666L171.025,257.764L171.025,274.666Z" style="fill:white;fill-rule:nonzero;"/>
        <path d="M212.208,271.705C211.155,273.089 209.32,275 204.709,275C198.593,275 194.652,270.848 194.652,263.875L194.652,243.363L200.572,243.363L200.572,263.747C200.572,267.305 202.211,269.735 205.702,269.735C209.974,269.735 212.208,266.576 212.208,263.025L212.208,243.363L218.128,243.363L218.128,274.669L212.208,274.669L212.208,271.705Z" style="fill:white;fill-rule:nonzero;"/>
        <rect x="227.352" y="227.246" width="5.92" height="47.418" style="fill:white;"/>
        <path d="M256.23,273.942C255.177,274.469 253.793,274.995 251.1,274.995C247.482,274.995 243.269,273.611 243.269,266.774L243.269,248.293L239.193,248.293L239.193,243.366L243.269,243.366L243.269,231.196L249.189,230.534L249.189,243.366L254.327,243.366L254.327,248.293L249.189,248.293L249.189,266.774C249.189,269.008 250.378,269.67 251.686,269.67C253.206,269.67 254.327,269.211 255.44,268.685L256.23,273.942Z" style="fill:white;fill-rule:nonzero;"/>
        <path d="M278.27,264.078C278.27,261.648 275.314,260.001 272.155,260.001C269.063,260.001 266.431,261.317 266.431,265.003C266.431,268.35 269.259,269.599 272.155,269.599C275.577,269.599 278.27,267.365 278.27,265.131L278.27,264.078ZM278.27,271.908C277.285,273.021 275.179,274.999 270.771,274.999C264.001,274.999 260.188,271.441 260.188,265.003C260.188,258.353 264.791,254.803 270.974,254.803C274.261,254.803 277.021,256.059 278.27,257.368L278.27,253.554C278.27,249.809 275.773,248.425 272.486,248.425C268.8,248.425 265.513,249.613 263.738,250.335L263.076,244.942C264.987,244.212 268.078,243.031 273.14,243.031C280.181,243.031 284.19,246.717 284.19,253.554L284.19,274.668L278.27,274.668L278.27,271.908Z" style="fill:white;fill-rule:nonzero;"/>
        <path d="M343.664,254.278C343.664,250.728 341.693,248.298 338.203,248.298C334.126,248.298 332.027,250.795 332.027,254.346L332.027,274.662L326.108,274.662L326.108,254.278C326.108,250.728 324.129,248.298 320.647,248.298C316.57,248.298 314.464,250.795 314.464,254.346L314.464,274.662L308.544,274.662L308.544,243.364L314.464,243.364L314.464,245.989C315.585,244.68 317.886,243.033 321.632,243.033C325.513,243.033 328.605,244.68 330.38,247.636C332.027,245.267 334.916,243.033 339.196,243.033C345.311,243.033 349.583,247.177 349.583,254.143L349.583,274.662L343.664,274.662L343.664,254.278Z" style="fill:white;fill-rule:nonzero;"/>
        <path d="M376.373,271.705C375.32,273.089 373.485,275 368.874,275C362.759,275 358.817,270.848 358.817,263.875L358.817,243.363L364.737,243.363L364.737,263.747C364.737,267.305 366.377,269.735 369.867,269.735C374.139,269.735 376.373,266.576 376.373,263.025L376.373,243.363L382.293,243.363L382.293,274.669L376.373,274.669L376.373,271.705Z" style="fill:white;fill-rule:nonzero;"/>
        <rect x="391.517" y="227.246" width="5.92" height="47.418" style="fill:white;"/>
        <path d="M420.395,273.942C419.342,274.469 417.958,274.995 415.266,274.995C411.648,274.995 407.435,273.611 407.435,266.774L407.435,248.293L403.359,248.293L403.359,243.366L407.435,243.366L407.435,231.196L413.355,230.534L413.355,243.366L418.492,243.366L418.492,248.293L413.355,248.293L413.355,266.774C413.355,269.008 414.543,269.67 415.852,269.67C417.372,269.67 418.492,269.211 419.606,268.685L420.395,273.942Z" style="fill:white;fill-rule:nonzero;"/>
        <path d="M432.24,274.664L426.32,274.664L426.32,243.358L432.24,243.358L432.24,274.664ZM429.284,237.446C426.787,237.446 425.403,236.129 425.403,233.76C425.403,231.263 426.787,230.014 429.284,230.014C431.721,230.014 433.165,231.263 433.165,233.76C433.165,236.257 431.721,237.446 429.284,237.446" style="fill:white;fill-rule:nonzero;"/>
        <path d="M476.574,254.278C476.574,250.728 474.603,248.298 471.113,248.298C467.036,248.298 464.938,250.795 464.938,254.346L464.938,274.662L459.018,274.662L459.018,254.278C459.018,250.728 457.04,248.298 453.557,248.298C449.48,248.298 447.374,250.795 447.374,254.346L447.374,274.662L441.454,274.662L441.454,243.364L447.374,243.364L447.374,245.989C448.495,244.68 450.797,243.033 454.542,243.033C458.424,243.033 461.515,244.68 463.29,247.636C464.938,245.267 467.826,243.033 472.106,243.033C478.221,243.033 482.494,247.177 482.494,254.143L482.494,274.662L476.574,274.662L476.574,254.278Z" style="fill:white;fill-rule:nonzero;"/>
        <path d="M510.008,256.647C510.008,251.187 507.315,248.298 503.103,248.298C499.883,248.298 496.792,250.134 496.13,256.647L510.008,256.647ZM496.13,261.379C496.792,267.103 500.079,269.404 504.088,269.404C508.624,269.404 511.324,268.284 513.626,267.103L514.679,272.827C511.851,274.143 508.955,274.993 504.028,274.993C496.13,274.993 489.751,270.127 489.751,259.28C489.751,248.689 495.671,243.033 503.103,243.033C511.587,243.033 516.258,249.08 516.258,258.22L516.258,261.379L496.13,261.379Z" style="fill:white;fill-rule:nonzero;"/>
        <path d="M542.842,255.461C542.842,250.527 539.751,248.293 535.937,248.293C532.251,248.293 528.438,251.58 528.438,259.275C528.438,266.902 531.665,269.407 535.606,269.407C539.555,269.407 542.842,267.105 542.842,262.043L542.842,255.461ZM542.842,271.641C541.917,272.761 539.42,274.995 534.689,274.995C528.964,274.995 522.187,271.182 522.187,259.275C522.187,248.097 528.573,243.035 535.283,243.035C540.21,243.035 541.917,244.87 542.842,245.924L542.842,227.254L548.762,227.254L548.762,274.665L542.842,274.665L542.842,271.641Z" style="fill:white;fill-rule:nonzero;"/>
        <path d="M563.903,274.664L557.983,274.664L557.983,243.358L563.903,243.358L563.903,274.664ZM560.939,237.446C558.442,237.446 557.065,236.129 557.065,233.76C557.065,231.263 558.442,230.014 560.939,230.014C563.376,230.014 564.82,231.263 564.82,233.76C564.82,236.257 563.376,237.446 560.939,237.446" style="fill:white;fill-rule:nonzero;"/>
        <path d="M585.215,228.565L591.857,228.565L585.681,238.953L581.003,238.953L585.215,228.565ZM589.224,264.076C589.224,261.646 586.268,259.999 583.109,259.999C580.025,259.999 577.385,261.315 577.385,265.001C577.385,268.356 580.213,269.605 583.109,269.605C586.531,269.605 589.224,267.363 589.224,265.129L589.224,264.076ZM589.224,271.906C588.239,273.019 586.14,274.998 581.732,274.998C574.955,274.998 571.142,271.447 571.142,265.001C571.142,258.352 575.745,254.802 581.928,254.802C585.215,254.802 587.976,256.058 589.224,257.374L589.224,253.553C589.224,249.807 586.727,248.423 583.44,248.423C579.754,248.423 576.467,249.611 574.692,250.334L574.038,244.94C575.941,244.218 579.032,243.03 584.102,243.03C591.135,243.03 595.144,246.716 595.144,253.553L595.144,274.667L589.224,274.667L589.224,271.906Z" style="fill:white;fill-rule:nonzero;"/>
        <rect x="604.37" y="227.246" width="5.92" height="47.418" style="fill:white;"/>
        <path d="M637.06,254.278C637.06,250.728 635.089,248.298 631.599,248.298C627.522,248.298 625.424,250.795 625.424,254.346L625.424,274.662L619.504,274.662L619.504,243.364L625.424,243.364L625.424,245.989C626.537,244.68 628.839,243.033 632.592,243.033C638.707,243.033 642.98,247.177 642.98,254.143L642.98,274.662L637.06,274.662L637.06,254.278Z" style="fill:white;fill-rule:nonzero;"/>
        <path d="M658.121,274.664L652.202,274.664L652.202,243.358L658.121,243.358L658.121,274.664ZM656.218,228.562L662.86,228.562L656.677,238.958L652.006,238.958L656.218,228.562Z" style="fill:white;fill-rule:nonzero;"/>
        <path d="M687.329,272.954C686.216,273.548 682.598,274.992 679.304,274.992C673.452,274.992 666.02,271.969 666.02,258.948C666.02,246.455 673.519,243.032 679.304,243.032C682.854,243.032 685.945,244.476 687.329,245.206L686.013,250.531C684.501,249.742 681.808,248.425 679.304,248.425C675.753,248.425 672.271,251.584 672.271,258.948C672.271,266.576 675.753,269.404 679.304,269.404C681.936,269.404 684.501,268.155 686.013,267.237L687.329,272.954Z" style="fill:white;fill-rule:nonzero;"/>
        <path d="M711.478,254.278C711.478,250.728 709.507,248.298 706.017,248.298C701.94,248.298 699.841,250.795 699.841,254.346L699.841,274.662L693.922,274.662L693.922,227.252L699.841,227.252L699.841,245.989C700.955,244.68 703.256,243.033 707.01,243.033C713.125,243.033 717.397,247.177 717.397,254.143L717.397,274.662L711.478,274.662L711.478,254.278Z" style="fill:white;fill-rule:nonzero;"/>
        <path d="M747.673,274.666L741.753,274.666L741.753,227.248L747.673,227.248L747.673,255.794L757.933,243.36L765.5,243.36L753.984,256.584L767.335,274.666L759.775,274.666L747.673,257.764L747.673,274.666Z" style="fill:white;fill-rule:nonzero;"/>
        <path d="M781.62,248.295C776.949,248.295 773.595,251.973 773.595,259.014C773.595,265.791 777.077,269.401 781.62,269.401C786.224,269.401 789.639,265.791 789.639,259.014C789.639,251.973 786.291,248.295 781.62,248.295M781.62,274.998C773.993,274.998 767.351,270.59 767.351,259.014C767.351,247.438 774.256,243.03 781.62,243.03C789.052,243.03 795.889,247.438 795.889,259.014C795.889,270.59 789.18,274.998 781.62,274.998" style="fill:white;fill-rule:nonzero;"/>
        <path d="M838.258,254.278C838.258,250.728 836.288,248.298 832.798,248.298C828.721,248.298 826.622,250.795 826.622,254.346L826.622,274.662L820.702,274.662L820.702,254.278C820.702,250.728 818.724,248.298 815.242,248.298C811.165,248.298 809.059,250.795 809.059,254.346L809.059,274.662L803.139,274.662L803.139,243.364L809.059,243.364L809.059,245.989C810.179,244.68 812.481,243.033 816.227,243.033C820.108,243.033 823.2,244.68 824.975,247.636C826.622,245.267 829.51,243.033 833.79,243.033C839.906,243.033 844.178,247.177 844.178,254.143L844.178,274.662L838.258,274.662L838.258,254.278Z" style="fill:white;fill-rule:nonzero;"/>
        <path d="M870.968,271.705C869.915,273.089 868.08,275 863.469,275C857.353,275 853.412,270.848 853.412,263.875L853.412,243.363L859.332,243.363L859.332,263.747C859.332,267.305 860.971,269.735 864.462,269.735C868.734,269.735 870.968,266.576 870.968,263.025L870.968,243.363L876.888,243.363L876.888,274.669L870.968,274.669L870.968,271.705Z" style="fill:white;fill-rule:nonzero;"/>
        <path d="M903.671,254.278C903.671,250.728 901.7,248.298 898.21,248.298C894.133,248.298 892.034,250.795 892.034,254.346L892.034,274.662L886.115,274.662L886.115,243.364L892.034,243.364L892.034,245.989C893.148,244.68 895.449,243.033 899.203,243.033C905.318,243.033 909.59,247.177 909.59,254.143L909.59,274.662L903.671,274.662L903.671,254.278Z" style="fill:white;fill-rule:nonzero;"/>
        <path d="M924.733,274.664L918.814,274.664L918.814,243.358L924.733,243.358L924.733,274.664ZM921.777,237.446C919.28,237.446 917.896,236.129 917.896,233.76C917.896,231.263 919.28,230.014 921.777,230.014C924.207,230.014 925.659,231.263 925.659,233.76C925.659,236.257 924.207,237.446 921.777,237.446" style="fill:white;fill-rule:nonzero;"/>
        <path d="M939.866,274.666L933.946,274.666L933.946,227.248L939.866,227.248L939.866,255.794L950.126,243.36L957.693,243.36L946.177,256.584L959.528,274.666L951.968,274.666L939.866,257.764L939.866,274.666Z" style="fill:white;fill-rule:nonzero;"/>
        <path d="M979.275,264.078C979.275,261.648 976.319,260.001 973.16,260.001C970.068,260.001 967.436,261.317 967.436,265.003C967.436,268.35 970.264,269.599 973.16,269.599C976.582,269.599 979.275,267.365 979.275,265.131L979.275,264.078ZM979.275,271.908C978.29,273.021 976.184,274.999 971.776,274.999C965.006,274.999 961.193,271.441 961.193,265.003C961.193,258.353 965.796,254.803 971.979,254.803C975.266,254.803 978.026,256.059 979.275,257.368L979.275,253.554C979.275,249.809 976.778,248.425 973.491,248.425C969.805,248.425 966.518,249.613 964.743,250.335L964.081,244.942C965.991,244.212 969.083,243.031 974.145,243.031C981.186,243.031 985.195,246.717 985.195,253.554L985.195,274.668L979.275,274.668L979.275,271.908Z" style="fill:white;fill-rule:nonzero;"/>
        <path d="M1014.41,272.954C1013.3,273.548 1009.68,274.992 1006.39,274.992C1000.53,274.992 993.103,271.969 993.103,258.948C993.103,246.455 1000.6,243.032 1006.39,243.032C1009.94,243.032 1013.03,244.476 1014.41,245.206L1013.1,250.531C1011.58,249.742 1008.89,248.425 1006.39,248.425C1002.84,248.425 999.354,251.584 999.354,258.948C999.354,266.576 1002.84,269.404 1006.39,269.404C1009.02,269.404 1011.58,268.155 1013.1,267.237L1014.41,272.954Z" style="fill:white;fill-rule:nonzero;"/>
        <path d="M1026.92,274.664L1021.01,274.664L1021.01,243.358L1026.92,243.358L1026.92,274.664ZM1025.02,228.562L1031.66,228.562L1025.47,238.958L1020.81,238.958L1025.02,228.562Z" style="fill:white;fill-rule:nonzero;"/>
        <path d="M0.226,146.798C0.226,149.506 4.664,151.988 9.929,151.988C11.877,151.988 13.757,151.612 15.337,151.086C16.992,150.559 68.787,132.439 68.787,132.439L68.787,206.868C68.787,206.868 16.691,225.056 15.262,225.59C13.757,226.109 11.576,226.485 9.846,226.485C4.513,226.485 -0,223.777 -0,218.97L-0,146.798L0.226,146.798ZM55.632,125.226L-0,143.948L-0,125L55.632,125L55.632,125.226Z" style="fill:white;fill-rule:nonzero;"/>
        <path d="M138.385,174.689C138.385,187.018 133.654,193.787 121.619,193.787C109.591,193.787 104.634,187.018 104.634,174.689L104.634,139.209L111.772,139.209L111.772,174.388C111.772,182.73 114.104,187.018 121.619,187.018C129.14,187.018 131.247,182.73 131.247,174.388L131.247,139.209L138.385,139.209L138.385,174.689Z" style="fill:white;fill-rule:nonzero;"/>
        <path d="M169.008,170.106C169.008,166.044 166.752,163.261 162.765,163.261C158.109,163.261 155.702,166.119 155.702,170.181L155.702,193.408L148.94,193.408L148.94,157.627L155.702,157.627L155.702,160.636C156.981,159.131 159.606,157.251 163.894,157.251C170.889,157.251 175.771,161.982 175.771,169.955L175.771,193.408L169.008,193.408L169.008,170.106Z" style="fill:white;fill-rule:nonzero;"/>
        <path d="M193.09,193.413L186.328,193.413L186.328,157.631L193.09,157.631L193.09,193.413ZM189.706,150.862C186.847,150.862 185.268,149.357 185.268,146.649C185.268,143.791 186.847,142.362 189.706,142.362C192.481,142.362 194.143,143.791 194.143,146.649C194.143,149.508 192.481,150.862 189.706,150.862" style="fill:white;fill-rule:nonzero;"/>
        <path d="M198.357,157.625L205.879,157.625L214.747,184.388L223.54,157.625L231.062,157.625L217.974,193.407L211.438,193.407L198.357,157.625Z" style="fill:white;fill-rule:nonzero;"/>
        <path d="M255.738,172.813C255.738,166.57 252.654,163.26 247.847,163.26C244.162,163.26 240.626,165.366 239.874,172.813L255.738,172.813ZM239.874,178.221C240.626,184.765 244.387,187.398 248.976,187.398C254.158,187.398 257.242,186.119 259.875,184.765L261.071,191.301C257.844,192.806 254.534,193.784 248.893,193.784C239.874,193.784 232.585,188.225 232.585,175.814C232.585,163.719 239.348,157.25 247.847,157.25C257.543,157.25 262.883,164.17 262.883,174.618L262.883,178.221L239.874,178.221Z" style="fill:white;fill-rule:nonzero;"/>
        <path d="M286.883,165.067C286.055,164.691 284.551,164.164 282.67,164.164C279.82,164.164 277.939,166.496 277.939,170.182L277.939,193.409L271.169,193.409L271.169,157.628L277.939,157.628L277.939,161.682C279.06,159.358 280.865,157.251 284.476,157.251C285.83,157.251 287.108,157.628 287.785,157.928L286.883,165.067Z" style="fill:white;fill-rule:nonzero;"/>
        <path d="M317.415,193.409L290.802,193.409L307.869,163.261L291.554,163.261L291.554,157.628L318.242,157.628L301.927,187.399L317.415,187.399L317.415,193.409Z" style="fill:white;fill-rule:nonzero;"/>
        <path d="M331.793,193.413L325.031,193.413L325.031,157.631L331.793,157.631L331.793,193.413ZM328.409,150.862C325.55,150.862 323.971,149.357 323.971,146.649C323.971,143.791 325.55,142.362 328.409,142.362C331.192,142.362 332.846,143.791 332.846,146.649C332.846,149.508 331.192,150.862 328.409,150.862" style="fill:white;fill-rule:nonzero;"/>
        <path d="M359.541,192.583C358.338,193.185 356.758,193.787 353.674,193.787C349.537,193.787 344.731,192.207 344.731,184.392L344.731,163.263L340.067,163.263L340.067,157.629L344.731,157.629L344.731,143.714L351.501,142.961L351.501,157.629L357.36,157.629L357.36,163.263L351.501,163.263L351.501,184.392C351.501,186.942 352.847,187.694 354.351,187.694C356.081,187.694 357.36,187.167 358.639,186.566L359.541,192.583Z" style="fill:white;fill-rule:nonzero;"/>
        <path d="M384.74,181.308C384.74,178.525 381.356,176.644 377.745,176.644C374.217,176.644 371.209,178.149 371.209,182.361C371.209,186.19 374.435,187.619 377.745,187.619C381.656,187.619 384.74,185.069 384.74,182.511L384.74,181.308ZM384.74,190.251C383.612,191.53 381.205,193.787 376.166,193.787C368.426,193.787 364.063,189.725 364.063,182.361C364.063,174.764 369.328,170.702 376.399,170.702C380.152,170.702 383.311,172.131 384.74,173.636L384.74,169.28C384.74,164.993 381.882,163.413 378.121,163.413C373.916,163.413 370.156,164.767 368.125,165.595L367.372,159.427C369.554,158.599 373.089,157.253 378.873,157.253C386.922,157.253 391.503,161.458 391.503,169.28L391.503,193.41L384.74,193.41L384.74,190.251Z" style="fill:white;fill-rule:nonzero;"/>
        <path d="M429.496,193.409L429.496,145.969L416.34,145.969L416.34,139.207L449.798,139.207L449.798,145.969L436.642,145.969L436.642,193.409L429.496,193.409Z" style="fill:white;fill-rule:nonzero;"/>
        <path d="M463.492,163.263C458.159,163.263 454.323,167.475 454.323,175.516C454.323,183.264 458.309,187.393 463.492,187.393C468.757,187.393 472.669,183.264 472.669,175.516C472.669,167.475 468.832,163.263 463.492,163.263M463.492,193.787C454.774,193.787 447.185,188.747 447.185,175.516C447.185,162.285 455.075,157.253 463.492,157.253C471.984,157.253 479.807,162.285 479.807,175.516C479.807,188.747 472.135,193.787 463.492,193.787" style="fill:white;fill-rule:nonzero;"/>
        <path d="M528.243,170.106C528.243,166.044 525.986,163.261 522,163.261C517.344,163.261 514.937,166.119 514.937,170.181L514.937,193.408L508.175,193.408L508.175,170.106C508.175,166.044 505.918,163.261 501.932,163.261C497.268,163.261 494.861,166.119 494.861,170.181L494.861,193.408L488.099,193.408L488.099,157.627L494.861,157.627L494.861,160.636C496.14,159.131 498.772,157.251 503.06,157.251C507.498,157.251 511.026,159.131 513.056,162.508C514.937,159.801 518.247,157.251 523.128,157.251C530.124,157.251 535.005,161.982 535.005,169.955L535.005,193.408L528.243,193.408L528.243,170.106Z" style="fill:white;fill-rule:nonzero;"/>
        <path d="M559.399,140.709L566.989,140.709L559.926,152.586L554.585,152.586L559.399,140.709ZM563.988,181.304C563.988,178.521 560.603,176.641 556.992,176.641C553.457,176.641 550.456,178.152 550.456,182.357C550.456,186.193 553.683,187.622 556.992,187.622C560.904,187.622 563.988,185.065 563.988,182.508L563.988,181.304ZM563.988,190.248C562.859,191.526 560.452,193.783 555.413,193.783C547.673,193.783 543.31,189.729 543.31,182.357C543.31,174.768 548.575,170.706 555.638,170.706C559.399,170.706 562.558,172.135 563.988,173.639L563.988,169.277C563.988,164.997 561.129,163.417 557.368,163.417C553.156,163.417 549.403,164.764 547.372,165.598L546.62,159.431C548.801,158.603 552.336,157.249 558.121,157.249C566.161,157.249 570.75,161.461 570.75,169.277L570.75,193.407L563.988,193.407L563.988,190.248Z" style="fill:white;fill-rule:nonzero;"/>
        <path d="M581.068,140.709L587.086,140.709L591.674,147.403L596.255,140.709L602.272,140.709L595.277,152.586L588.064,152.586L581.068,140.709ZM590.839,193.783C585.205,193.783 581.294,192.211 579.113,191.225L580.316,184.839C583.174,186.193 586.785,187.397 590.839,187.397C593.998,187.397 597.007,186.494 597.007,183.26C597.007,180.033 593.547,179.198 589.711,178.22C584.754,176.941 579.037,175.362 579.037,167.923C579.037,160.709 584.077,157.249 592.501,157.249C597.458,157.249 600.994,158.377 603.401,159.355L602.272,165.666C599.489,164.387 596.781,163.267 592.652,163.267C588.59,163.267 586.108,164.613 586.108,167.847C586.108,170.405 589.041,171.232 592.501,172.21C597.759,173.639 604.296,175.294 604.296,183.109C604.296,189.947 600.317,193.783 590.839,193.783" style="fill:white;fill-rule:nonzero;"/>
        <path d="M633.487,172.813C633.487,166.57 630.403,163.26 625.596,163.26C621.91,163.26 618.375,165.366 617.623,172.813L633.487,172.813ZM617.623,178.221C618.375,184.765 622.136,187.398 626.724,187.398C631.907,187.398 634.991,186.119 637.624,184.765L638.82,191.301C635.593,192.806 632.283,193.784 626.642,193.784C617.623,193.784 610.334,188.225 610.334,175.814C610.334,163.719 617.096,157.25 625.596,157.25C635.292,157.25 640.632,164.17 640.632,174.618L640.632,178.221L617.623,178.221Z" style="fill:white;fill-rule:nonzero;"/>
        <path d="M681.478,168.828L673.355,168.828L673.355,186.647L681.478,186.647C687.12,186.647 691.099,183.563 691.099,177.997C691.099,172.212 687.044,168.828 681.478,168.828M682.456,145.969L673.355,145.969L673.355,162.065L681.478,162.065C687.044,162.065 690.723,159.358 690.723,154.017C690.723,148.526 687.27,145.969 682.456,145.969M681.253,193.409L666.216,193.409L666.216,139.207L682.381,139.207C692.377,139.207 698.244,144.697 698.244,153.641C698.244,159.801 695.01,163.186 690.497,165.368C695.386,167.398 698.62,172.062 698.62,177.846C698.62,187.625 691.926,193.409 681.253,193.409" style="fill:white;fill-rule:nonzero;"/>
        <path d="M726.084,181.308C726.084,178.525 722.699,176.644 719.089,176.644C715.561,176.644 712.552,178.149 712.552,182.361C712.552,186.19 715.779,187.619 719.089,187.619C723,187.619 726.084,185.069 726.084,182.511L726.084,181.308ZM726.084,190.251C724.956,191.53 722.549,193.787 717.509,193.787C709.769,193.787 705.407,189.725 705.407,182.361C705.407,174.764 710.672,170.702 717.743,170.702C721.496,170.702 724.655,172.131 726.084,173.636L726.084,169.28C726.084,164.993 723.226,163.413 719.465,163.413C715.26,163.413 711.499,164.767 709.469,165.595L708.716,159.427C710.898,158.599 714.433,157.253 720.217,157.253C728.266,157.253 732.846,161.458 732.846,169.28L732.846,193.41L726.084,193.41L726.084,190.251Z" style="fill:white;fill-rule:nonzero;"/>
        <path d="M759.107,192.583C757.903,193.185 756.324,193.787 753.24,193.787C749.103,193.787 744.296,192.207 744.296,184.392L744.296,163.263L739.633,163.263L739.633,157.629L744.296,157.629L744.296,143.714L751.066,142.961L751.066,157.629L756.925,157.629L756.925,163.263L751.066,163.263L751.066,184.392C751.066,186.942 752.412,187.694 753.917,187.694C755.647,187.694 756.925,187.167 758.204,186.566L759.107,192.583Z" style="fill:white;fill-rule:nonzero;"/>
        <path d="M772.649,193.413L765.887,193.413L765.887,157.631L772.649,157.631L772.649,193.413ZM769.272,150.862C766.413,150.862 764.834,149.357 764.834,146.649C764.834,143.791 766.413,142.362 769.272,142.362C772.047,142.362 773.702,143.791 773.702,146.649C773.702,149.508 772.047,150.862 769.272,150.862" style="fill:white;fill-rule:nonzero;"/>
        <path d="M795.221,157.625L802.742,157.625L811.611,184.388L820.404,157.625L827.926,157.625L814.838,193.407L808.301,193.407L795.221,157.625Z" style="fill:white;fill-rule:nonzero;"/>
        <path d="M852.597,172.813C852.597,166.57 849.513,163.26 844.707,163.26C841.021,163.26 837.486,165.366 836.734,172.813L852.597,172.813ZM836.734,178.221C837.486,184.765 841.247,187.398 845.835,187.398C851.018,187.398 854.102,186.119 856.734,184.765L857.93,191.301C854.703,192.806 851.394,193.784 845.752,193.784C836.734,193.784 829.445,188.225 829.445,175.814C829.445,163.719 836.207,157.25 844.707,157.25C854.403,157.25 859.743,164.17 859.743,174.618L859.743,178.221L836.734,178.221Z" style="fill:white;fill-rule:nonzero;"/>
        <path d="M913.069,193.409L881.568,193.409L903.975,145.969L883.072,145.969L883.072,139.207L914.649,139.207L892.166,186.647L913.069,186.647L913.069,193.409Z" style="fill:white;fill-rule:nonzero;"/>
        <rect x="921.439" y="139.21" width="6.762" height="54.202" style="fill:white;"/>
        <path d="M945.501,193.413L938.739,193.413L938.739,157.631L945.501,157.631L945.501,193.413ZM943.32,140.707L950.917,140.707L943.846,152.584L938.506,152.584L943.32,140.707Z" style="fill:white;fill-rule:nonzero;"/>
        <path d="M976.105,170.106C976.105,166.044 973.849,163.261 969.862,163.261C965.206,163.261 962.799,166.119 962.799,170.181L962.799,193.408L956.037,193.408L956.037,157.627L962.799,157.627L962.799,160.636C964.078,159.131 966.703,157.251 970.99,157.251C977.986,157.251 982.867,161.982 982.867,169.955L982.867,193.408L976.105,193.408L976.105,170.106Z" style="fill:white;fill-rule:nonzero;"/>
        <path d="M1014.32,172.813C1014.32,166.57 1011.23,163.26 1006.43,163.26C1002.74,163.26 999.206,165.366 998.454,172.813L1014.32,172.813ZM995.746,140.709L1001.76,140.709L1006.34,147.404L1010.93,140.709L1016.95,140.709L1009.95,152.586L1002.74,152.586L995.746,140.709ZM998.454,178.221C999.206,184.765 1002.97,187.398 1007.56,187.398C1012.74,187.398 1015.82,186.119 1018.45,184.765L1019.65,191.301C1016.42,192.806 1013.11,193.784 1007.47,193.784C998.454,193.784 991.165,188.225 991.165,175.814C991.165,163.719 997.927,157.25 1006.43,157.25C1016.12,157.25 1021.46,164.17 1021.46,174.618L1021.46,178.221L998.454,178.221Z" style="fill:white;fill-rule:nonzero;"/>
    </g>
</svg>
