<?xml version="1.0" encoding="UTF-8" standalone="no"?>
<!DOCTYPE svg PUBLIC "-//W3C//DTD SVG 1.1//EN" "http://www.w3.org/Graphics/SVG/1.1/DTD/svg11.dtd">
<svg width="100%" height="100%" viewBox="0 0 2160 2160" version="1.1" xmlns="http://www.w3.org/2000/svg" xmlns:xlink="http://www.w3.org/1999/xlink" xml:space="preserve" xmlns:serif="http://www.serif.com/" style="fill-rule:evenodd;clip-rule:evenodd;stroke-linejoin:round;stroke-miterlimit:2;">
    <g transform="matrix(1,0,0,1,-2660,-2660)">
        <g id="datum_dekorativne_vector" transform="matrix(1,0,0,1,2660,2660)">
            <rect x="0" y="0" width="2160" height="2160" style="fill:none;"/>
            <g transform="matrix(1.80416,0,0,1.80416,-5605.96,-5418.53)">
                <g transform="matrix(358.333,0,0,358.333,3475.45,3531.18)">
                    <path d="M0.08,-0.624L0.148,-0.624C0.159,-0.624 0.167,-0.621 0.171,-0.616C0.176,-0.611 0.178,-0.602 0.178,-0.589L0.178,-0.083C0.178,-0.072 0.175,-0.064 0.17,-0.058C0.164,-0.052 0.156,-0.049 0.145,-0.047L0.071,-0.038C0.057,-0.035 0.049,-0.029 0.049,-0.019C0.049,-0.013 0.051,-0.008 0.056,-0.005C0.06,-0.002 0.067,-0 0.075,-0L0.39,-0C0.398,-0 0.404,-0.002 0.408,-0.005C0.412,-0.008 0.413,-0.012 0.413,-0.018C0.413,-0.029 0.407,-0.035 0.393,-0.038L0.327,-0.047C0.316,-0.049 0.308,-0.052 0.303,-0.058C0.298,-0.064 0.295,-0.072 0.295,-0.083L0.295,-0.694C0.295,-0.711 0.288,-0.719 0.273,-0.719C0.267,-0.719 0.262,-0.718 0.258,-0.716C0.254,-0.714 0.249,-0.71 0.245,-0.705C0.231,-0.69 0.218,-0.68 0.204,-0.675C0.191,-0.669 0.174,-0.666 0.154,-0.666L0.08,-0.666C0.071,-0.666 0.065,-0.664 0.059,-0.66C0.055,-0.656 0.052,-0.651 0.052,-0.645C0.052,-0.638 0.054,-0.633 0.059,-0.629C0.063,-0.625 0.07,-0.624 0.08,-0.624Z" style="fill-rule:nonzero;"/>
                </g>
                <g transform="matrix(358.333,0,0,358.333,3635.98,3531.18)">
                    <path d="M0.116,-0.113L0.093,-0.133L0.234,-0.243C0.276,-0.275 0.309,-0.305 0.335,-0.334C0.361,-0.362 0.379,-0.391 0.391,-0.421C0.402,-0.45 0.407,-0.482 0.407,-0.517C0.407,-0.554 0.403,-0.585 0.393,-0.61C0.384,-0.634 0.37,-0.652 0.353,-0.664C0.336,-0.676 0.315,-0.682 0.291,-0.682C0.253,-0.682 0.225,-0.671 0.207,-0.65C0.189,-0.629 0.18,-0.603 0.18,-0.572L0.18,-0.524C0.18,-0.505 0.175,-0.49 0.164,-0.48C0.154,-0.469 0.14,-0.464 0.122,-0.464C0.104,-0.464 0.09,-0.469 0.08,-0.481C0.069,-0.493 0.064,-0.51 0.064,-0.531C0.064,-0.563 0.073,-0.593 0.091,-0.621C0.109,-0.648 0.136,-0.671 0.171,-0.688C0.206,-0.705 0.25,-0.714 0.303,-0.714C0.353,-0.714 0.395,-0.705 0.429,-0.689C0.462,-0.672 0.487,-0.649 0.504,-0.62C0.521,-0.591 0.529,-0.558 0.529,-0.522C0.529,-0.49 0.522,-0.46 0.508,-0.432C0.494,-0.404 0.47,-0.374 0.436,-0.344C0.403,-0.313 0.357,-0.278 0.299,-0.239L0.116,-0.113ZM0.05,-0.051C0.05,-0.082 0.061,-0.108 0.085,-0.129C0.108,-0.149 0.141,-0.159 0.185,-0.159C0.207,-0.159 0.229,-0.156 0.25,-0.149C0.271,-0.143 0.292,-0.135 0.312,-0.127C0.333,-0.118 0.353,-0.11 0.374,-0.103C0.394,-0.097 0.415,-0.094 0.436,-0.094C0.46,-0.094 0.479,-0.099 0.493,-0.109C0.506,-0.12 0.517,-0.137 0.526,-0.16C0.529,-0.166 0.532,-0.17 0.536,-0.172C0.54,-0.174 0.544,-0.175 0.548,-0.174C0.553,-0.174 0.557,-0.171 0.56,-0.167C0.562,-0.163 0.563,-0.157 0.563,-0.148C0.558,-0.108 0.549,-0.077 0.537,-0.053C0.525,-0.03 0.509,-0.013 0.491,-0.002C0.471,0.009 0.449,0.014 0.423,0.014C0.402,0.014 0.384,0.011 0.367,0.005C0.349,-0.001 0.334,-0.01 0.319,-0.023C0.304,-0.036 0.289,-0.053 0.274,-0.074C0.259,-0.091 0.246,-0.102 0.236,-0.108C0.226,-0.114 0.215,-0.117 0.205,-0.117C0.192,-0.117 0.183,-0.113 0.176,-0.103C0.169,-0.093 0.165,-0.076 0.164,-0.053C0.163,-0.037 0.159,-0.024 0.154,-0.014C0.149,-0.004 0.142,0.003 0.133,0.007C0.124,0.012 0.114,0.014 0.102,0.014C0.087,0.014 0.075,0.008 0.065,-0.003C0.055,-0.015 0.05,-0.031 0.05,-0.051Z" style="fill-rule:nonzero;"/>
                </g>
                <g transform="matrix(358.333,0,0,358.333,3848.83,3531.18)">
                    <path d="M0.121,0.009C0.108,0.009 0.095,0.005 0.084,-0.002C0.073,-0.009 0.064,-0.018 0.057,-0.029C0.051,-0.04 0.048,-0.053 0.048,-0.066C0.048,-0.08 0.051,-0.093 0.057,-0.104C0.064,-0.115 0.073,-0.124 0.084,-0.131C0.095,-0.138 0.108,-0.141 0.121,-0.141C0.135,-0.141 0.148,-0.138 0.159,-0.131C0.17,-0.124 0.179,-0.115 0.185,-0.104C0.192,-0.093 0.195,-0.08 0.195,-0.066C0.195,-0.053 0.192,-0.04 0.185,-0.029C0.179,-0.018 0.17,-0.009 0.159,-0.002C0.148,0.005 0.135,0.009 0.121,0.009Z" style="fill-rule:nonzero;"/>
                </g>
                <g transform="matrix(358.333,0,0,358.333,3475.45,3889.51)">
                    <path d="M0.06,-0.141C0.06,-0.161 0.066,-0.177 0.077,-0.19C0.088,-0.203 0.103,-0.209 0.121,-0.209C0.139,-0.209 0.152,-0.204 0.161,-0.193C0.17,-0.182 0.175,-0.168 0.175,-0.151L0.175,-0.102C0.175,-0.077 0.184,-0.057 0.203,-0.042C0.221,-0.026 0.248,-0.018 0.284,-0.018C0.321,-0.018 0.351,-0.033 0.376,-0.063C0.4,-0.093 0.412,-0.138 0.412,-0.199C0.412,-0.26 0.4,-0.306 0.375,-0.336C0.351,-0.366 0.319,-0.381 0.28,-0.381C0.262,-0.381 0.246,-0.378 0.23,-0.372C0.214,-0.366 0.2,-0.357 0.186,-0.345C0.172,-0.333 0.159,-0.319 0.147,-0.303C0.141,-0.297 0.136,-0.292 0.131,-0.29C0.126,-0.287 0.121,-0.285 0.115,-0.285C0.108,-0.285 0.102,-0.287 0.098,-0.291C0.093,-0.295 0.091,-0.301 0.091,-0.308L0.091,-0.681C0.091,-0.691 0.094,-0.699 0.1,-0.705C0.106,-0.711 0.115,-0.714 0.127,-0.714C0.133,-0.714 0.14,-0.713 0.148,-0.711C0.155,-0.708 0.165,-0.703 0.179,-0.696C0.193,-0.689 0.209,-0.682 0.225,-0.676C0.242,-0.67 0.26,-0.665 0.28,-0.662C0.3,-0.658 0.321,-0.656 0.344,-0.656C0.379,-0.656 0.407,-0.661 0.429,-0.671C0.451,-0.68 0.469,-0.694 0.481,-0.713C0.487,-0.719 0.493,-0.722 0.497,-0.724C0.502,-0.725 0.506,-0.725 0.51,-0.724C0.513,-0.723 0.516,-0.72 0.518,-0.717C0.52,-0.713 0.52,-0.707 0.519,-0.7C0.512,-0.668 0.5,-0.642 0.484,-0.621C0.467,-0.6 0.445,-0.585 0.418,-0.575C0.392,-0.565 0.361,-0.56 0.326,-0.56C0.299,-0.56 0.273,-0.563 0.248,-0.568C0.223,-0.573 0.199,-0.58 0.176,-0.589C0.153,-0.598 0.133,-0.609 0.114,-0.622L0.136,-0.646L0.136,-0.323L0.119,-0.322C0.135,-0.343 0.152,-0.361 0.171,-0.376C0.19,-0.391 0.211,-0.402 0.234,-0.41C0.256,-0.418 0.281,-0.422 0.308,-0.422C0.352,-0.422 0.39,-0.413 0.422,-0.395C0.455,-0.377 0.48,-0.353 0.498,-0.321C0.516,-0.29 0.525,-0.253 0.525,-0.212C0.525,-0.165 0.514,-0.125 0.494,-0.091C0.473,-0.057 0.444,-0.031 0.407,-0.013C0.37,0.005 0.326,0.014 0.277,0.014C0.231,0.014 0.192,0.007 0.16,-0.007C0.127,-0.021 0.102,-0.04 0.086,-0.063C0.069,-0.086 0.06,-0.112 0.06,-0.141Z" style="fill-rule:nonzero;"/>
                </g>
                <g transform="matrix(358.333,0,0,358.333,3677.91,3889.51)">
                    <path d="M0.121,0.009C0.108,0.009 0.095,0.005 0.084,-0.002C0.073,-0.009 0.064,-0.018 0.057,-0.029C0.051,-0.04 0.048,-0.053 0.048,-0.066C0.048,-0.08 0.051,-0.093 0.057,-0.104C0.064,-0.115 0.073,-0.124 0.084,-0.131C0.095,-0.138 0.108,-0.141 0.121,-0.141C0.135,-0.141 0.148,-0.138 0.159,-0.131C0.17,-0.124 0.179,-0.115 0.185,-0.104C0.192,-0.093 0.195,-0.08 0.195,-0.066C0.195,-0.053 0.192,-0.04 0.185,-0.029C0.179,-0.018 0.17,-0.009 0.159,-0.002C0.148,0.005 0.135,0.009 0.121,0.009Z" style="fill-rule:nonzero;"/>
                </g>
            </g>
        </g>
    </g>
</svg>
