<?xml version="1.0" encoding="UTF-8" standalone="no"?>
<!DOCTYPE svg PUBLIC "-//W3C//DTD SVG 1.1//EN" "http://www.w3.org/Graphics/SVG/1.1/DTD/svg11.dtd">
<svg width="100%" height="100%" viewBox="0 0 2160 2160" version="1.1" xmlns="http://www.w3.org/2000/svg" xmlns:xlink="http://www.w3.org/1999/xlink" xml:space="preserve" xmlns:serif="http://www.serif.com/" style="fill-rule:evenodd;clip-rule:evenodd;stroke-linecap:round;stroke-linejoin:round;stroke-miterlimit:1.5;">
    <g transform="matrix(1,0,0,1,-2660,-2660)">
        <g id="datum_dekorativne_vector" transform="matrix(1,0,0,1,2660,2660)">
            <rect x="0" y="0" width="2160" height="2160" style="fill:none;"/>
            <clipPath id="_clip1">
                <rect x="0" y="0" width="2160" height="2160"/>
            </clipPath>
            <g clip-path="url(#_clip1)">
                <g transform="matrix(1,0,0,1,-2660,-2660)">
                    <path d="M3183.76,4820L2660,3740L2882.22,2908.62L3740,2660L4820,3740L3183.76,4820Z" style="
                        fill:rgb(0,255,0);
                        mix-blend-mode:screen;"/>
                </g>
                <g transform="matrix(1,0,0,1,-2660,-2660)">
                    <path d="M4341.92,4820L2660,4186.4L3195.73,2660L4820,3417.78L4237.41,4044.81L4341.92,4820Z" style="
                        fill:rgb(0,0,255);
                        mix-blend-mode:screen;"/>
                </g>
                <g transform="matrix(-1,1.22465e-16,-1.22465e-16,-1,5042.22,4820)">
                    <path d="M3202.47,4820L2882.22,2660L3202.47,3026.73L4402.6,2917.05L4595.6,3740L5042.22,4186.4L3202.47,4820Z" style="
                        fill:rgb(255,0,0);
                        mix-blend-mode:screen;"/>
                </g>
            </g>
        </g>
    </g>
</svg>
