<?xml version="1.0" encoding="UTF-8" standalone="no"?><!DOCTYPE svg PUBLIC "-//W3C//DTD SVG 1.1//EN" "http://www.w3.org/Graphics/SVG/1.1/DTD/svg11.dtd"><svg width="100%" height="100%" viewBox="0 0 114 23" version="1.1" xmlns="http://www.w3.org/2000/svg" xmlns:xlink="http://www.w3.org/1999/xlink" xml:space="preserve" xmlns:serif="http://www.serif.com/" style="fill-rule:evenodd;clip-rule:evenodd;stroke-linejoin:round;stroke-miterlimit:2;"><path d="M0,22.272l15.616,0l-0,-4.064l-10.496,0l0,-5.088l9.248,0l0,-3.968l-9.248,0l0,-4.576l10.496,0l-0,-4.064l-15.616,0l0,21.76Z" style="fill:#1E9A4F;"/><path d="M33.28,22.272l5.472,0l-7.968,-21.76l-6.144,0l-7.936,21.76l5.152,0l1.44,-4.064l8.544,0l1.44,4.064Zm-6.368,-14.272l0.672,-2.464l0.64,2.464l2.208,6.272l-5.728,0l2.208,-6.272Z" style="fill:#1E9A4F;"/><path d="M44.352,6.112c0,-1.28 1.12,-2.112 2.912,-2.112c2.112,0 3.36,1.024 3.808,3.168l5.472,0c-0.672,-5.024 -4.576,-7.168 -9.088,-7.168c-5.344,0 -8.384,2.944 -8.384,6.592c0,8.608 12.832,4.896 12.832,9.76c-0,1.504 -1.216,2.432 -3.52,2.432c-2.304,-0 -3.808,-1.184 -4.224,-3.328l-5.408,0c0.768,4.96 4.448,7.328 9.6,7.328c5.088,-0 8.8,-2.592 8.8,-7.072c0,-8.896 -12.8,-4.96 -12.8,-9.6Z" style="fill:#1E9A4F;"/><path d="M76.592,22.272l15.616,0l0,-4.064l-10.496,0l0,-5.088l9.248,0l0,-3.968l-9.248,0l0,-4.576l10.496,0l0,-4.064l-15.616,0l0,21.76Z" style="fill:#1E9A4F;"/><path d="M95.376,22.272l5.12,0l0,-8.064l3.392,0c1.856,0 2.528,0.416 2.944,2.368l1.216,5.696l5.344,0l-1.632,-6.656c-0.384,-1.6 -0.992,-2.688 -1.984,-3.424c1.728,-1.024 2.72,-2.688 2.72,-5.088c0,-4.032 -3.136,-6.592 -8.224,-6.592l-8.896,0l0,21.76Zm8.8,-17.696c1.984,0 3.04,1.12 3.04,2.816c0,1.696 -1.024,2.848 -3.168,2.848l-3.552,0l0,-5.664l3.68,0Z" style="fill:#1E9A4F;"/><path d="M63.25,22.272l-5,-0c0,-7.016 2.269,-9.757 4.795,-11.722c1.646,-1.28 3.616,-1.975 4.866,-4.045c0.782,-1.293 1.219,-3.137 1.219,-5.993l5,0c0,7.016 -2.269,9.757 -4.795,11.722c-1.645,1.28 -3.615,1.975 -4.866,4.045c-0.781,1.293 -1.219,3.137 -1.219,5.993Z" style="fill:#1E9A4F;"/></svg>