<?xml version="1.0" encoding="UTF-8" standalone="no"?>
<!DOCTYPE svg PUBLIC "-//W3C//DTD SVG 1.1//EN" "http://www.w3.org/Graphics/SVG/1.1/DTD/svg11.dtd">
<svg width="100%" height="100%" viewBox="0 0 2160 2160" version="1.1" xmlns="http://www.w3.org/2000/svg" xmlns:xlink="http://www.w3.org/1999/xlink" xml:space="preserve" xmlns:serif="http://www.serif.com/" style="fill-rule:evenodd;clip-rule:evenodd;stroke-linejoin:round;stroke-miterlimit:2;">
    <rect id="logo_dnh_vector" x="0" y="0" width="2160" height="2160" style="fill:none;"/>
    <g id="logo_dnh_vector1" serif:id="logo_dnh_vector">
        <path d="M621.532,1691.52C599.613,1691.52 580.857,1686.38 565.265,1676.1C549.673,1665.82 537.64,1651.47 529.166,1633.05C520.692,1614.63 516.455,1593.22 516.455,1568.82C516.455,1544.64 520.692,1523.29 529.166,1504.76C537.64,1486.23 549.673,1471.82 565.265,1461.54C580.857,1451.26 599.613,1446.12 621.532,1446.12C643.452,1446.12 662.207,1451.26 677.799,1461.54C693.391,1471.82 705.424,1486.23 713.898,1504.76C722.372,1523.29 726.609,1544.64 726.609,1568.82C726.609,1593.22 722.372,1614.63 713.898,1633.05C705.424,1651.47 693.391,1665.82 677.799,1676.1C662.207,1686.38 643.452,1691.52 621.532,1691.52ZM331.723,1687.45L331.723,1655.93C346.185,1643.95 360.252,1632.09 373.923,1620.34C387.595,1608.59 399.797,1596.95 410.531,1585.43C421.264,1573.9 429.851,1562.66 436.292,1551.7C442.732,1540.74 445.952,1530.07 445.952,1519.67C445.952,1509.95 443.297,1501.37 437.986,1493.91C432.676,1486.45 423.92,1482.72 411.717,1482.72C399.289,1482.72 389.911,1486.79 383.584,1494.93C377.256,1503.06 374.093,1512.89 374.093,1524.41L332.062,1524.41C332.514,1507.02 336.355,1492.5 343.587,1480.86C350.818,1469.22 360.421,1460.52 372.398,1454.76C384.375,1449 397.82,1446.12 412.734,1446.12C436.913,1446.12 455.725,1452.73 469.171,1465.94C482.616,1479.16 489.339,1496.28 489.339,1517.3C489.339,1530.4 486.344,1543.17 480.356,1555.6C474.368,1568.03 466.515,1580.01 456.799,1591.53C447.082,1603.05 436.574,1613.84 425.275,1623.9C413.977,1633.95 403.017,1643.28 392.397,1651.86L495.101,1651.86L495.101,1687.45L331.723,1687.45ZM944.22,1687.45L944.22,1655.93C958.683,1643.95 972.749,1632.09 986.421,1620.34C1000.09,1608.59 1012.29,1596.95 1023.03,1585.43C1033.76,1573.9 1042.35,1562.66 1048.79,1551.7C1055.23,1540.74 1058.45,1530.07 1058.45,1519.67C1058.45,1509.95 1055.79,1501.37 1050.48,1493.91C1045.17,1486.45 1036.42,1482.72 1024.21,1482.72C1011.79,1482.72 1002.41,1486.79 996.081,1494.93C989.754,1503.06 986.59,1512.89 986.59,1524.41L944.559,1524.41C945.011,1507.02 948.853,1492.5 956.084,1480.86C963.315,1469.22 972.919,1460.52 984.895,1454.76C996.872,1449 1010.32,1446.12 1025.23,1446.12C1049.41,1446.12 1068.22,1452.73 1081.67,1465.94C1095.11,1479.16 1101.84,1496.28 1101.84,1517.3C1101.84,1530.4 1098.84,1543.17 1092.85,1555.6C1086.87,1568.03 1079.01,1580.01 1069.3,1591.53C1059.58,1603.05 1049.07,1613.84 1037.77,1623.9C1026.47,1633.95 1015.51,1643.28 1004.89,1651.86L1107.6,1651.86L1107.6,1687.45L944.22,1687.45ZM752.37,1687.45L752.37,1655.93C766.832,1643.95 780.899,1632.09 794.57,1620.34C808.242,1608.59 820.444,1596.95 831.178,1585.43C841.911,1573.9 850.498,1562.66 856.939,1551.7C863.379,1540.74 866.599,1530.07 866.599,1519.67C866.599,1509.95 863.944,1501.37 858.633,1493.91C853.323,1486.45 844.567,1482.72 832.364,1482.72C819.936,1482.72 810.558,1486.79 804.231,1494.93C797.903,1503.06 794.74,1512.89 794.74,1524.41L752.709,1524.41C753.161,1507.02 757.002,1492.5 764.234,1480.86C771.465,1469.22 781.069,1460.52 793.045,1454.76C805.022,1449 818.467,1446.12 833.381,1446.12C857.56,1446.12 876.372,1452.73 889.818,1465.94C903.263,1479.16 909.986,1496.28 909.986,1517.3C909.986,1530.4 906.991,1543.17 901.003,1555.6C895.015,1568.03 887.162,1580.01 877.446,1591.53C867.729,1603.05 857.221,1613.84 845.922,1623.9C834.624,1633.95 823.664,1643.28 813.044,1651.86L915.748,1651.86L915.748,1687.45L752.37,1687.45ZM621.532,1652.54C639.384,1652.54 653.959,1645.09 665.258,1630.17C676.556,1615.26 682.206,1594.81 682.206,1568.82C682.206,1542.83 676.556,1522.38 665.258,1507.47C653.959,1492.55 639.384,1485.1 621.532,1485.1C603.454,1485.1 588.823,1492.55 577.637,1507.47C566.452,1522.38 560.859,1542.83 560.859,1568.82C560.859,1594.81 566.452,1615.26 577.637,1630.17C588.823,1645.09 603.454,1652.54 621.532,1652.54ZM590.348,1050.97C575.886,1050.97 564.022,1048.65 554.757,1044.02C545.493,1039.39 538.6,1033.23 534.081,1025.55C529.562,1017.87 527.302,1009.39 527.302,1000.13C527.302,984.535 533.403,971.881 545.606,962.164C557.808,952.447 576.112,947.589 600.517,947.589L643.226,947.589L643.226,943.521C643.226,931.997 639.949,923.523 633.396,918.099C626.843,912.676 618.708,909.964 608.991,909.964C600.178,909.964 592.495,912.055 585.942,916.235C579.388,920.416 575.321,926.573 573.739,934.708L531.369,934.708C532.499,922.506 536.623,911.885 543.741,902.846C550.859,893.807 560.068,886.859 571.366,882C582.665,877.142 595.319,874.713 609.33,874.713C633.283,874.713 652.151,880.701 665.936,892.678C679.72,904.654 686.612,921.602 686.612,943.521L686.612,1046.9L649.666,1046.9L645.598,1019.79C640.627,1028.83 633.678,1036.28 624.752,1042.16C615.826,1048.03 604.358,1050.97 590.348,1050.97ZM1165.22,1050.97C1150.76,1050.97 1138.89,1048.65 1129.63,1044.02C1120.37,1039.39 1113.47,1033.23 1108.95,1025.55C1104.43,1017.87 1102.17,1009.39 1102.17,1000.13C1102.17,984.535 1108.28,971.881 1120.48,962.164C1132.68,952.447 1150.99,947.589 1175.39,947.589L1218.1,947.589L1218.1,943.521C1218.1,931.997 1214.82,923.523 1208.27,918.099C1201.72,912.676 1193.58,909.964 1183.86,909.964C1175.05,909.964 1167.37,912.055 1160.82,916.235C1154.26,920.416 1150.19,926.573 1148.61,934.708L1106.24,934.708C1107.37,922.506 1111.5,911.885 1118.61,902.846C1125.73,893.807 1134.94,886.859 1146.24,882C1157.54,877.142 1170.19,874.713 1184.2,874.713C1208.16,874.713 1227.02,880.701 1240.81,892.678C1254.59,904.654 1261.49,921.602 1261.49,943.521L1261.49,1046.9L1224.54,1046.9L1220.47,1019.79C1215.5,1028.83 1208.55,1036.28 1199.62,1042.16C1190.7,1048.03 1179.23,1050.97 1165.22,1050.97ZM1663.15,1050.97C1645.98,1050.97 1630.84,1047.24 1617.73,1039.79C1604.62,1032.33 1594.29,1021.93 1586.72,1008.6C1579.14,995.269 1575.36,980.016 1575.36,962.842C1575.36,945.668 1579.14,930.415 1586.72,917.083C1594.29,903.75 1604.62,893.355 1617.73,885.898C1630.84,878.441 1645.98,874.713 1663.15,874.713C1684.62,874.713 1702.7,880.306 1717.38,891.491C1732.07,902.677 1741.45,918.099 1745.52,937.759L1699.76,937.759C1697.5,929.624 1693.04,923.24 1686.37,918.608C1679.7,913.975 1671.85,911.659 1662.81,911.659C1650.84,911.659 1640.67,916.179 1632.31,925.218C1623.94,934.256 1619.76,946.798 1619.76,962.842C1619.76,978.886 1623.94,991.427 1632.31,1000.47C1640.67,1009.5 1650.84,1014.02 1662.81,1014.02C1671.85,1014.02 1679.7,1011.76 1686.37,1007.25C1693.04,1002.73 1697.5,996.286 1699.76,987.925L1745.52,987.925C1741.45,1006.91 1732.07,1022.16 1717.38,1033.68C1702.7,1045.21 1684.62,1050.97 1663.15,1050.97ZM782.198,1046.9L782.198,802.854L825.585,802.854L825.585,904.541C831.234,895.276 838.861,887.989 848.465,882.678C858.068,877.368 869.085,874.713 881.513,874.713C902.303,874.713 918.403,881.266 929.815,894.372C941.226,907.479 946.932,926.686 946.932,951.995L946.932,1046.9L903.884,1046.9L903.884,956.063C903.884,941.6 901.003,930.528 895.241,922.845C889.479,915.162 880.383,911.32 867.955,911.32C855.752,911.32 845.64,915.614 837.618,924.201C829.596,932.788 825.585,944.764 825.585,960.13L825.585,1046.9L782.198,1046.9ZM336.468,1046.9L336.468,878.78L374.771,878.78L378.16,907.253C383.358,897.31 390.871,889.401 400.701,883.526C410.531,877.65 422.112,874.713 435.444,874.713C456.234,874.713 472.391,881.266 483.915,894.372C495.44,907.479 501.202,926.686 501.202,951.995L501.202,1046.9L457.815,1046.9L457.815,956.063C457.815,941.6 454.878,930.528 449.003,922.845C443.127,915.162 433.975,911.32 421.547,911.32C409.344,911.32 399.345,915.614 391.549,924.201C383.753,932.788 379.855,944.764 379.855,960.13L379.855,1046.9L336.468,1046.9ZM1500.45,1046.9L1500.45,878.78L1543.84,878.78L1543.84,1046.9L1500.45,1046.9ZM1777.38,1046.9L1777.38,878.78L1820.77,878.78L1820.77,1046.9L1777.38,1046.9ZM1297.75,1046.9L1297.75,878.78L1336.06,878.78L1339.45,907.253C1344.64,897.31 1352.16,889.401 1361.99,883.526C1371.82,877.65 1383.4,874.713 1396.73,874.713C1417.52,874.713 1433.68,881.266 1445.2,894.372C1456.73,907.479 1462.49,926.686 1462.49,951.995L1462.49,1046.9L1419.1,1046.9L1419.1,956.063C1419.1,941.6 1416.16,930.528 1410.29,922.845C1404.41,915.162 1395.26,911.32 1382.83,911.32C1370.63,911.32 1360.63,915.614 1352.83,924.201C1345.04,932.788 1341.14,944.764 1341.14,960.13L1341.14,1046.9L1297.75,1046.9ZM983.201,1046.9L983.201,878.78L1021.84,878.78L1025.91,910.303C1032.01,899.457 1040.32,890.813 1050.82,884.373C1061.33,877.933 1073.7,874.713 1087.94,874.713L1087.94,920.472L1075.74,920.472C1066.25,920.472 1057.77,921.941 1050.31,924.879C1042.86,927.816 1037.04,932.901 1032.86,940.132C1028.68,947.363 1026.59,957.419 1026.59,970.299L1026.59,1046.9L983.201,1046.9ZM1175.05,1017.08C1187.48,1017.08 1197.14,1013.01 1204.03,1004.87C1210.92,996.738 1215.27,986.682 1217.08,974.705L1180.13,974.705C1168.61,974.705 1160.36,976.796 1155.39,980.976C1150.42,985.157 1147.93,990.297 1147.93,996.399C1147.93,1002.95 1150.42,1008.04 1155.39,1011.65C1160.36,1015.27 1166.92,1017.08 1175.05,1017.08ZM600.178,1017.08C612.606,1017.08 622.267,1013.01 629.159,1004.87C636.051,996.738 640.401,986.682 642.209,974.705L605.262,974.705C593.738,974.705 585.49,976.796 580.518,980.976C575.547,985.157 573.061,990.297 573.061,996.399C573.061,1002.95 575.547,1008.04 580.518,1011.65C585.49,1015.27 592.043,1017.08 600.178,1017.08ZM1799.07,852.68C1791.16,852.68 1784.67,850.308 1779.58,845.562C1774.5,840.817 1771.96,834.829 1771.96,827.598C1771.96,820.366 1774.5,814.435 1779.58,809.802C1784.67,805.17 1791.16,802.854 1799.07,802.854C1806.98,802.854 1813.48,805.17 1818.56,809.802C1823.65,814.435 1826.19,820.366 1826.19,827.598C1826.19,834.829 1823.65,840.817 1818.56,845.562C1813.48,850.308 1806.98,852.68 1799.07,852.68ZM1522.14,852.68C1514.24,852.68 1507.74,850.308 1502.65,845.562C1497.57,840.817 1495.03,834.829 1495.03,827.598C1495.03,820.366 1497.57,814.435 1502.65,809.802C1507.74,805.17 1514.24,802.854 1522.14,802.854C1530.05,802.854 1536.55,805.17 1541.63,809.802C1546.72,814.435 1549.26,820.366 1549.26,827.598C1549.26,834.829 1546.72,840.817 1541.63,845.562C1536.55,850.308 1530.05,852.68 1522.14,852.68ZM1092.68,659.606C1084.55,659.606 1076.98,658.702 1069.97,656.894L1057.43,669.435C1061.27,671.469 1066.47,673.164 1073.02,674.52C1079.58,675.876 1090.2,677.232 1104.89,678.587C1127.26,680.621 1143.53,685.931 1153.7,694.518C1163.87,703.105 1168.95,714.969 1168.95,730.109C1168.95,740.052 1166.24,749.486 1160.82,758.412C1155.39,767.338 1147.03,774.569 1135.73,780.105C1124.43,785.642 1109.97,788.41 1092.35,788.41C1068.39,788.41 1049.07,783.947 1034.38,775.021C1019.7,766.095 1012.35,752.706 1012.35,734.854C1012.35,719.714 1019.7,706.608 1034.38,695.535C1029.86,693.502 1025.97,691.355 1022.69,689.095C1019.41,686.835 1016.53,684.463 1014.05,681.977L1014.05,674.181L1043.54,642.997C1030.43,631.472 1023.88,616.671 1023.88,598.593C1023.88,587.295 1026.64,577.013 1032.18,567.748C1037.72,558.483 1045.57,551.139 1055.74,545.716C1065.91,540.292 1078.22,537.581 1092.68,537.581C1102.17,537.581 1110.99,538.937 1119.12,541.648L1182.85,541.648L1182.85,568.087L1154.04,570.121C1158.56,578.708 1160.82,588.199 1160.82,598.593C1160.82,609.892 1158.1,620.174 1152.68,629.438C1147.26,638.703 1139.4,646.047 1129.12,651.471C1118.84,656.894 1106.69,659.606 1092.68,659.606ZM1052.01,730.448C1052.01,738.809 1055.91,745.08 1063.7,749.26C1071.5,753.441 1081.05,755.531 1092.35,755.531C1103.19,755.531 1112.01,753.328 1118.78,748.921C1125.56,744.515 1128.95,738.583 1128.95,731.126C1128.95,725.025 1126.75,719.94 1122.34,715.873C1117.94,711.805 1109.18,709.32 1096.07,708.416C1086.81,707.738 1078.22,706.721 1070.31,705.365C1063.76,708.981 1059.07,712.935 1056.25,717.229C1053.42,721.522 1052.01,725.928 1052.01,730.448ZM832.703,713.839C817.789,713.839 804.683,711.41 793.384,706.551C782.085,701.693 773.046,694.97 766.267,686.383C759.488,677.796 755.421,667.854 754.065,656.555L797.79,656.555C799.146,663.108 802.818,668.701 808.807,673.333C814.795,677.966 822.534,680.282 832.025,680.282C841.516,680.282 848.465,678.361 852.871,674.52C857.278,670.678 859.481,666.272 859.481,661.3C859.481,654.069 856.317,649.154 849.99,646.556C843.663,643.957 834.85,641.415 823.551,638.929C816.32,637.347 808.976,635.427 801.519,633.167C794.062,630.907 787.226,628.026 781.012,624.524C774.798,621.021 769.77,616.502 765.928,610.965C762.087,605.429 760.166,598.593 760.166,590.458C760.166,575.544 766.098,563.003 777.961,552.834C789.825,542.665 806.49,537.581 827.958,537.581C847.843,537.581 863.718,542.213 875.581,551.478C887.445,560.743 894.506,573.51 896.766,589.78L855.752,589.78C853.267,577.352 843.889,571.138 827.619,571.138C819.484,571.138 813.213,572.719 808.807,575.883C804.4,579.047 802.197,583.001 802.197,587.747C802.197,592.718 805.473,596.672 812.027,599.61C818.58,602.548 827.28,605.259 838.126,607.745C849.877,610.457 860.667,613.451 870.497,616.727C880.327,620.004 888.179,624.862 894.055,631.303C899.93,637.743 902.867,646.951 902.867,658.928C903.093,669.322 900.382,678.7 894.732,687.061C889.083,695.422 880.948,701.975 870.327,706.721C859.707,711.466 847.165,713.839 832.703,713.839ZM648.988,713.839C632.04,713.839 617.013,710.223 603.906,702.992C590.8,695.761 580.518,685.592 573.061,672.486C565.604,659.38 561.876,644.24 561.876,627.066C561.876,609.666 565.548,594.187 572.892,580.628C580.236,567.07 590.405,556.506 603.398,548.936C616.391,541.366 631.701,537.581 649.327,537.581C665.823,537.581 680.398,541.196 693.052,548.427C705.707,555.659 715.593,565.545 722.711,578.086C729.829,590.628 733.388,604.581 733.388,619.948C733.388,622.433 733.332,625.032 733.219,627.744C733.106,630.455 732.936,633.28 732.71,636.218L604.923,636.218C605.827,649.324 610.403,659.606 618.651,667.063C626.899,674.52 636.898,678.248 648.649,678.248C657.462,678.248 664.862,676.271 670.851,672.317C676.839,668.362 681.302,663.221 684.239,656.894L728.304,656.894C725.14,667.515 719.887,677.175 712.542,685.875C705.198,694.575 696.159,701.411 685.426,706.382C674.692,711.353 662.546,713.839 648.988,713.839ZM937.78,709.771L937.78,541.648L981.167,541.648L981.167,709.771L937.78,709.771ZM1212.67,709.771L1212.67,541.648L1250.98,541.648L1254.37,570.121C1259.56,560.178 1267.08,552.269 1276.91,546.394C1286.74,540.518 1298.32,537.581 1311.65,537.581C1332.44,537.581 1348.6,544.134 1360.12,557.24C1371.65,570.347 1377.41,589.554 1377.41,614.863L1377.41,709.771L1334.02,709.771L1334.02,618.931C1334.02,604.468 1331.09,593.396 1325.21,585.713C1319.33,578.03 1310.18,574.188 1297.75,574.188C1285.55,574.188 1275.55,578.482 1267.76,587.069C1259.96,595.656 1256.06,607.632 1256.06,622.998L1256.06,709.771L1212.67,709.771ZM337.485,709.771L337.485,472.501L418.496,472.501C446.291,472.501 469.171,477.416 487.135,487.245C505.1,497.075 518.432,510.86 527.132,528.598C535.832,546.337 540.182,567.183 540.182,591.136C540.182,615.089 535.832,635.935 527.132,653.674C518.432,671.413 505.1,685.197 487.135,695.027C469.171,704.857 446.291,709.771 418.496,709.771L337.485,709.771ZM380.872,672.486L416.463,672.486C436.348,672.486 452.053,669.266 463.578,662.826C475.102,656.386 483.35,647.121 488.322,635.031C493.293,622.942 495.779,608.31 495.779,591.136C495.779,574.188 493.293,559.613 488.322,547.411C483.35,535.208 475.102,525.83 463.578,519.277C452.053,512.724 436.348,509.447 416.463,509.447L380.872,509.447L380.872,672.486ZM1092.68,626.388C1101.5,626.388 1108.79,624.015 1114.55,619.27C1120.31,614.524 1123.19,607.745 1123.19,598.932C1123.19,590.119 1120.31,583.34 1114.55,578.595C1108.79,573.849 1101.5,571.477 1092.68,571.477C1083.42,571.477 1075.96,573.849 1070.31,578.595C1064.66,583.34 1061.84,590.119 1061.84,598.932C1061.84,607.745 1064.66,614.524 1070.31,619.27C1075.96,624.015 1083.42,626.388 1092.68,626.388ZM649.327,572.832C638.706,572.832 629.328,575.827 621.193,581.815C613.058,587.803 607.861,596.898 605.601,609.101L689.324,609.101C688.646,598.028 684.578,589.215 677.121,582.662C669.664,576.109 660.399,572.832 649.327,572.832ZM959.473,515.548C951.564,515.548 945.068,513.176 939.983,508.43C934.899,503.685 932.357,497.697 932.357,490.466C932.357,483.234 934.899,477.303 939.983,472.67C945.068,468.038 951.564,465.722 959.473,465.722C967.382,465.722 973.879,468.038 978.964,472.67C984.048,477.303 986.59,483.234 986.59,490.466C986.59,497.697 984.048,503.685 978.964,508.43C973.879,513.176 967.382,515.548 959.473,515.548Z" style="fill:white;fill-rule:nonzero;"/>
    </g>
</svg>
