<?xml version="1.0" encoding="UTF-8" standalone="no"?>
<!DOCTYPE svg PUBLIC "-//W3C//DTD SVG 1.1//EN" "http://www.w3.org/Graphics/SVG/1.1/DTD/svg11.dtd">
<svg width="100%" height="100%" viewBox="0 0 1525 400" version="1.1" xmlns="http://www.w3.org/2000/svg" xmlns:xlink="http://www.w3.org/1999/xlink" xml:space="preserve" xmlns:serif="http://www.serif.com/" style="fill-rule:evenodd;clip-rule:evenodd;stroke-linejoin:round;stroke-miterlimit:2;">
    <rect id="logo_ZDW" x="0" y="0" width="1525" height="400" style="fill:none;"/>
    <clipPath id="_clip1">
        <rect x="0" y="0" width="1525" height="400"/>
    </clipPath>
    <g clip-path="url(#_clip1)">
        <path d="M831.001,213.101L855.707,213.101L855.707,228.074C854.21,229.572 842.98,240.801 827.258,240.801C806.296,240.801 791.323,223.582 791.323,199.626C791.323,175.669 806.296,158.45 828.756,158.45C845.226,158.45 856.456,168.931 856.456,168.931L864.691,156.953C864.691,156.953 851.215,143.477 827.258,143.477C797.312,143.477 774.853,167.434 774.853,199.626C774.853,231.818 797.312,256.523 825.761,256.523C842.231,256.523 852.712,246.791 855.707,243.796L855.707,254.277L869.183,254.277L869.183,198.877L831.001,198.877L831.001,213.101ZM181.922,240.053L126.522,240.053L132.511,231.069L181.173,156.204L181.173,144.974L109.303,144.974L109.303,159.947L161.708,159.947L154.971,168.182L107.057,243.047L107.057,254.277L181.922,254.277L181.922,240.053ZM259.033,240.053L214.114,240.053L214.114,144.974L199.141,144.974L199.141,254.277L259.033,254.277L259.033,240.053ZM38.93,160.696L38.93,144.974L0,144.974L0,254.277L38.93,254.277L38.93,239.304L15.722,239.304L15.722,160.696L38.93,160.696ZM1525,144.974L1485.32,144.974L1485.32,159.947L1509.28,159.947L1509.28,240.053L1485.32,240.053L1485.32,255.026L1525,255.026L1525,144.974ZM330.155,183.904L329.406,171.177L336.892,183.904L381.811,254.277L396.784,254.277L396.784,144.974L381.811,144.974L381.811,228.074L375.074,215.347L330.155,145.723L315.182,145.723L315.182,254.277L330.155,254.277L330.155,183.904ZM544.269,199.626C544.269,225.08 530.793,240.053 506.836,240.053L489.617,240.053L489.617,159.947L507.585,159.947C530.044,159.947 544.269,174.92 544.269,199.626ZM560.739,199.626C560.739,165.936 540.525,144.974 509.082,144.974L475.393,144.974L475.393,254.277L509.082,254.277C541.274,254.277 560.739,233.315 560.739,199.626ZM639.347,240.053L592.931,240.053L592.931,206.364L628.866,206.364L628.866,191.391L592.931,191.391L592.931,160.696L637.85,160.696L637.85,145.723L577.958,145.723L577.958,255.026L639.347,255.026L639.347,240.053ZM718.33,225.828C718.33,204.866 702.982,198.128 689.507,192.139C679.026,187.647 670.042,183.155 670.042,174.172C670.042,165.936 677.528,159.199 687.261,159.199C699.239,159.199 708.972,168.182 708.972,168.182L716.458,154.707C715.709,154.707 705.977,143.477 686.512,143.477C668.544,143.477 654.32,156.953 654.32,174.172C654.32,192.888 669.293,199.626 682.02,205.615C693.25,210.855 702.982,215.347 702.982,225.828C702.982,236.31 693.999,240.801 685.763,240.801C671.539,240.801 661.058,229.572 661.058,229.572L661.058,228.823L651.325,240.801C652.074,240.801 664.053,255.774 685.763,255.774C705.228,255.774 718.33,242.299 718.33,224.331L718.33,225.828ZM754.639,144.974L739.666,144.974L739.666,254.277L754.639,254.277L754.639,144.974ZM289.728,144.974L274.755,144.974L274.755,254.277L289.728,254.277L289.728,144.974ZM955.277,144.974L955.277,216.096L956.026,228.074L948.54,215.347L904.369,145.723L889.396,145.723L889.396,254.277L904.369,254.277L904.369,171.177L911.856,183.904L956.026,254.277L970.999,254.277L970.999,144.974L955.277,144.974ZM1120.73,145.723L1120.73,224.331L1158.16,144.974L1176.88,144.974L1120.73,254.277L1105.76,254.277L1106.51,168.182L1063.08,254.277L1048.11,254.277L1048.11,144.974L1063.83,144.974L1063.08,225.828L1100.52,145.723L1120.73,145.723ZM1199.34,206.364L1235.27,206.364L1235.27,191.391L1199.34,191.391L1199.34,160.696L1243.51,160.696L1243.51,145.723L1183.62,145.723L1183.62,255.026L1245.75,255.026L1245.75,240.053L1199.34,240.053L1199.34,206.364ZM1278.69,206.364L1314.63,206.364L1314.63,191.391L1278.69,191.391L1278.69,160.696L1322.87,160.696L1322.87,145.723L1262.97,145.723L1262.97,255.026L1325.11,255.026L1325.11,240.053L1278.69,240.053L1278.69,206.364ZM1414.95,144.974L1397.73,144.974L1372.28,189.893L1358.05,189.893L1358.05,144.974L1343.08,144.974L1343.08,254.277L1358.05,254.277L1358.05,204.866L1372.28,204.866L1398.48,254.277L1416.45,254.277L1385,197.38L1414.95,144.974Z" style="fill:white;fill-rule:nonzero;"/>
    </g>
</svg>
